<svg width="91" height="91" xmlns="http://www.w3.org/2000/svg">

 <g>
  <title>background</title>
  <rect fill="none" id="canvas_background" height="402" width="582" y="-1" x="-1"/>
 </g>
 <g>
  <title>Layer 1</title>
  <path fill="#000000" id="svg_2" d="m89.4,57.2c2.1,-1.8 1.2,-5.1 -0.8,-6.4c-9.8,-6.2 -18.8,-13 -26.3,-22c-2.3,-2.8 -6.2,-0.2 -6.5,2.7c-0.4,3.9 -0.7,7.7 -1,11.6c-3.6,-0.3 -7.3,-0.6 -10.9,-1c-3.8,-0.3 -8.2,-1.4 -11.8,0.4c-0.1,0.1 -0.3,0.2 -0.4,0.3c-2,1.8 -2.7,5.1 -3,8.5c-5.4,-5.7 -11.3,-10.6 -17.8,-15.1c6.2,-5.3 12.2,-10.8 17.9,-16.7c0.1,1.8 0.3,3.6 0.4,5.4c0.2,1.9 1.6,3.9 3.8,3.8c5.2,-0.4 10.4,-0.8 15.6,-1.3c4.9,-0.4 4.9,-8.1 0,-7.6c-4.1,0.4 -8.2,0.7 -12.3,1.1c-0.3,-3.3 -0.7,-6.7 -0.9,-10c-0.2,-3 -4,-5.1 -6.3,-2.6c-8.6,9.1 -18.1,17.3 -27.5,25.5c-2,1.7 -1.2,5 0.8,6.2c9.7,6.1 19,13 26.6,21.7c2,2.3 5.4,0.3 5.6,-2.3c0.2,-3.3 1.5,-8.2 1.1,-12.2c2.4,0.7 5,0.8 7.4,1.1c4.7,0.7 9.3,1.3 14,2c1.6,0.2 4,-0.4 4.3,-2.4c0.3,-2.5 0.7,-5 1,-7.5c5.3,5.4 11.3,10.1 17.5,14.5c-6.1,5.3 -12,10.9 -17.7,16.7c-0.2,-1.8 -0.3,-3.7 -0.5,-5.5c-0.2,-1.9 -1.6,-3.9 -3.8,-3.8c-5.1,0.4 -10.2,0.8 -15.3,1.2c-4.9,0.4 -4.9,8.1 0,7.6c4,-0.3 8,-0.7 11.9,-1c0.3,3.3 0.6,6.7 0.9,10c0.3,3 4,5.2 6.3,2.6c8.5,-9.4 18.2,-17.3 27.7,-25.5z" class="st0"/>
 </g>
</svg>