<svg width="24" height="24" xmlns="http://www.w3.org/2000/svg">

 <g>
  <title>background</title>
  <rect fill="none" id="canvas_background" height="402" width="582" y="-1" x="-1"/>
 </g>
 <g>
  <title>Layer 1</title>
  <path fill="#ffffff" id="svg_1" d="m2,20c0,1.1 0.9,2 2,2l2.6,0l-4.6,-4.6l0,2.6z"/>
  <path fill="#ffffff" id="svg_2" d="m21.6,5.6l-3.2,-3.2c-0.8,-0.8 -2,-0.8 -2.8,0l-0.2,0.2c-0.4,0.4 -0.4,1 0,1.4l4.6,4.6c0.4,0.4 1,0.4 1.4,0l0.2,-0.2c0.8,-0.8 0.8,-2 0,-2.8z"/>
  <path fill="#ffffff" id="svg_3" d="m14,5.4c-0.4,-0.4 -1,-0.4 -1.4,0l-9.1,9.1c-0.5,0.5 -0.5,1.1 -0.1,1.5l4.6,4.6c0.4,0.4 1,0.4 1.4,0l9.1,-9.1c0.4,-0.4 0.4,-1 0,-1.4l-4.5,-4.7z"/>
 </g>
</svg>